<?xml version="1.0" encoding="UTF-8"?>
<svg id="Ebene_1" xmlns="http://www.w3.org/2000/svg" version="1.1" viewBox="0 0 163 42">
  <!-- Generator: Adobe Illustrator 29.0.0, SVG Export Plug-In . SVG Version: 2.1.0 Build 186)  -->
  <defs>
    <style>
      .st0 {
        fill: #171717;
      }

      .st1 {
        fill: #e42320;
      }
    </style>
  </defs>
  <path class="st1" d="M13.67,36.38v-7.14h7.18v7.14h-7.18Z"/>
  <path class="st1" d="M0,8.82v20.41h13.67v-6.12h6.84v-14.29H0Z"/>
  <g>
    <path class="st0" d="M42.42,30.81l-2.39-2.17c-1.11.64-2.5.99-4.09.99-5.22,0-8.29-3.9-8.29-8.76s3.07-8.9,8.29-8.9,8.29,3.9,8.29,8.9c0,2.43-.78,4.61-2.2,6.21l2.1,1.91-1.72,1.82ZM37.57,23l1.91,1.75c.61-.85,1.04-2.13,1.04-3.87,0-2.95-1.25-5.79-4.58-5.79s-4.58,2.83-4.58,5.79,1.25,5.64,4.58,5.64c.54,0,1.23,0,1.49-.24l-1.58-1.44,1.72-1.84Z"/>
    <path class="st0" d="M56.52,29.23h-3.19v-1.7h-.07c-.85,1.37-2.31,2.03-3.73,2.03-3.57,0-4.46-2.01-4.46-5.03v-7.51h3.35v6.9c0,2.01.59,3,2.15,3,1.82,0,2.6-1.02,2.6-3.5v-6.4h3.35v12.21Z"/>
    <path class="st0" d="M57.58,20.78c.19-3.14,3-4.09,5.74-4.09,2.43,0,5.36.54,5.36,3.47v6.35c0,1.11.12,2.22.43,2.72h-3.4c-.12-.38-.21-.78-.24-1.18-1.06,1.11-2.62,1.51-4.11,1.51-2.31,0-4.16-1.16-4.16-3.66,0-2.76,2.08-3.42,4.16-3.71,2.05-.31,3.97-.24,3.97-1.61,0-1.44-.99-1.65-2.17-1.65-1.28,0-2.1.52-2.22,1.84h-3.35ZM65.33,23.26c-.57.5-1.75.52-2.79.71-1.04.21-1.98.57-1.98,1.79s.97,1.56,2.05,1.56c2.62,0,2.72-2.08,2.72-2.81v-1.25Z"/>
    <path class="st0" d="M78.65,27.67h-.05c-.78,1.32-2.15,1.89-3.71,1.89-3.68,0-5.48-3.16-5.48-6.54s1.82-6.33,5.41-6.33c1.44,0,2.86.61,3.61,1.82h.05v-6.14h3.35v16.86h-3.19v-1.56ZM75.72,19.22c-2.2,0-2.95,1.89-2.95,3.9s.87,3.92,2.95,3.92c2.22,0,2.88-1.94,2.88-3.94s-.71-3.87-2.88-3.87Z"/>
    <path class="st0" d="M83.26,17.02h3.19v2.27h.05c.61-1.53,2.27-2.6,3.9-2.6.24,0,.52.05.73.12v3.12c-.31-.07-.8-.12-1.2-.12-2.46,0-3.31,1.77-3.31,3.92v5.5h-3.35v-12.21Z"/>
    <path class="st0" d="M93.91,23.94c.09,2.13,1.13,3.09,3,3.09,1.35,0,2.43-.83,2.64-1.58h2.95c-.95,2.88-2.95,4.11-5.72,4.11-3.85,0-6.23-2.64-6.23-6.42s2.53-6.45,6.23-6.45c4.16,0,6.16,3.5,5.93,7.25h-8.81ZM99.36,21.82c-.31-1.7-1.04-2.6-2.67-2.6-2.13,0-2.74,1.65-2.79,2.6h5.46Z"/>
    <path class="st0" d="M103.45,12.37h3.35v16.86h-3.35V12.37Z"/>
  </g>
</svg>